<?xml version="1.0" encoding="utf-8"?>
<!DOCTYPE svg PUBLIC "-//W3C//DTD SVG 1.1//EN" "http://www.w3.org/Graphics/SVG/1.1/DTD/svg11.dtd">
<svg version="1.1" id="crosshair" xmlns="http://www.w3.org/2000/svg" xmlns:xlink="http://www.w3.org/1999/xlink" x="0px" y="0px" width="100px"
	 height="100px" viewBox="0 0 100 100" enable-background="new 0 0 100 100" xml:space="preserve">
<g>
	<path fill="#BB0000" d="M1.207,78.105c-1.609,1.609-1.609,4.243,0,5.852l14.837,14.836c1.609,1.609,4.241,1.609,5.851,0
		l25.18-25.18c1.609-1.609,4.242-1.609,5.852,0l25.18,25.18c1.609,1.609,4.241,1.609,5.851,0l14.837-14.836
		c1.609-1.609,1.609-4.242,0-5.852l-25.181-25.18c-1.608-1.609-1.608-4.243,0-5.852l25.181-25.18c1.609-1.609,1.609-4.243,0-5.852
		L83.956,1.207c-1.609-1.609-4.241-1.609-5.851,0l-25.18,25.18c-1.609,1.609-4.242,1.609-5.852,0l-25.18-25.18
		c-1.609-1.609-4.241-1.609-5.851,0L1.207,16.043c-1.609,1.609-1.609,4.242,0,5.852l25.181,25.18c1.608,1.609,1.608,4.243,0,5.852
		L1.207,78.105z"/>
</g>
</svg>