<?xml version="1.0" encoding="utf-8"?>
<!DOCTYPE svg PUBLIC "-//W3C//DTD SVG 1.1//EN" "http://www.w3.org/Graphics/SVG/1.1/DTD/svg11.dtd">
<svg version="1.1" id="settings" xmlns="http://www.w3.org/2000/svg" xmlns:xlink="http://www.w3.org/1999/xlink" x="0px" y="0px" width="100px"
	 height="100px" viewBox="0 0 100 100" enable-background="new 0 0 100 100" xml:space="preserve">
<g>
	<path fill="#FFFFFF" d="M50,0C22.387,0,0,22.386,0,50s22.387,50,50,50s50-22.386,50-50S77.613,0,50,0z M82.176,64.521l-3.512,6.084
		l-4.865-0.996c-1.258,1.532-2.662,2.94-4.186,4.206l0.994,4.849l-6.086,3.513l-3.678-3.263c-1.848,0.7-3.783,1.225-5.781,1.56
		l-1.551,4.652h-7.023l-1.541-4.619c-2.018-0.325-3.973-0.848-5.844-1.544l-3.621,3.212l-6.086-3.511l0.967-4.729
		c-1.572-1.286-3.02-2.725-4.313-4.296l-4.711,0.964l-3.514-6.081l3.182-3.59c-0.715-1.887-1.246-3.86-1.582-5.902l-4.549-1.519
		l-0.002-7.022l4.555-1.52c0.336-2.039,0.869-4.012,1.584-5.896l-3.186-3.595l3.508-6.083l4.73,0.967
		c1.289-1.563,2.73-2.997,4.301-4.281l-0.971-4.743l6.084-3.514l3.643,3.229c1.859-0.695,3.809-1.213,5.818-1.538l1.547-4.641
		l7.023-0.001l1.559,4.674c1.988,0.335,3.916,0.857,5.758,1.553l3.693-3.275l6.086,3.511l-0.996,4.868
		c1.521,1.26,2.918,2.663,4.176,4.19l4.875-0.999l3.516,6.083l-3.311,3.731c0.682,1.824,1.191,3.729,1.518,5.696l4.74,1.582
		l0.002,7.024l-4.738,1.579c-0.326,1.971-0.836,3.877-1.514,5.704L82.176,64.521z"/>
	<circle fill="#FFFFFF" cx="50" cy="50" r="20"/>
</g>
</svg>