<?xml version="1.0" encoding="utf-8"?>
<!DOCTYPE svg PUBLIC "-//W3C//DTD SVG 1.1//EN" "http://www.w3.org/Graphics/SVG/1.1/DTD/svg11.dtd">
<svg version="1.1" id="touch-pig" xmlns="http://www.w3.org/2000/svg" xmlns:xlink="http://www.w3.org/1999/xlink" x="0px" y="0px"
	 width="67.223px" height="105px" viewBox="0 0 67.223 105" enable-background="new 0 0 67.223 105" xml:space="preserve">
<g>
	<path fill="none" stroke="#6b1345" stroke-width="5" stroke-linecap="round" stroke-linejoin="round" stroke-miterlimit="10" d="
		M54.723,42.5L54.723,42.5c0,0,0-5,5-5s5,5,5,5v15c0,0,0,0,0,15s-10,15-10,15v15h-30v-15l-20-20c0,0-5-5,0-10s10,0,10,0l10,10v-60
		c0,0,0-5,5-5s5,5,5,5v45"/>
	<path fill="none" stroke="#6b1345" stroke-width="5" stroke-linecap="round" stroke-linejoin="round" stroke-miterlimit="10" d="
		M44.723,37.5L44.723,37.5c0,0,0-5,5-5s5,5,5,5v15"/>
	<path fill="none" stroke="#6b1345" stroke-width="5" stroke-linecap="round" stroke-linejoin="round" stroke-miterlimit="10" d="
		M34.723,32.5L34.723,32.5c0,0,0-5,5-5s5,5,5,5v20"/>
</g>
</svg>